<svg width="61" height="40" viewBox="0 0 61 40" fill="none" xmlns="http://www.w3.org/2000/svg">
<path d="M43.2 0C38.2644 0 34.4061 3.71744 30.9134 8.43972C26.1139 2.32861 22.1 0 17.2966 0C7.50345 0 0 12.7448 0 26.2345C0 34.6759 4.08382 40 10.9241 40C15.8474 40 19.3881 37.679 25.6828 26.6759C25.6828 26.6759 28.3067 22.0422 30.1118 18.8503C30.7443 19.8716 31.4105 20.9721 32.1103 22.1517L35.0621 27.1172C40.812 36.7392 44.0156 40 49.8207 40C56.4845 40 60.1931 34.6031 60.1931 25.9862C60.1931 11.8621 52.5205 0 43.2 0ZM20.8828 23.6966C15.7793 31.6966 14.0138 33.4897 11.1724 33.4897C8.24828 33.4897 6.51034 30.9225 6.51034 26.3448C6.51034 16.5517 11.3931 6.53793 17.2138 6.53793C20.3658 6.53793 22.9999 8.35833 27.0347 14.1345C23.2035 20.0109 20.8828 23.6966 20.8828 23.6966ZM40.1439 22.6894L36.6147 16.8035C35.6596 15.2502 34.7418 13.8205 33.8612 12.5143C37.042 7.60489 39.6657 5.15863 42.7862 5.15863C49.269 5.15863 54.4552 14.7035 54.4552 26.4276C54.4552 30.8966 52.9914 33.4897 49.9586 33.4897C47.0518 33.4897 45.6631 31.5699 40.1439 22.6894Z" fill="white" style="fill:white;fill-opacity:1;"/>
</svg>
