<svg width="307" height="109" viewBox="0 0 307 109" fill="none" xmlns="http://www.w3.org/2000/svg">
<path d="M2.27719 19V17.848H5.36519C6.32519 17.848 7.15185 17.656 7.84519 17.272C8.53852 16.8773 9.07185 16.328 9.44519 15.624C9.81852 14.92 10.0052 14.104 10.0052 13.176C10.0052 12.2587 9.81852 11.4587 9.44519 10.776C9.07185 10.0933 8.53852 9.56533 7.84519 9.192C7.16252 8.81867 6.33585 8.632 5.36519 8.632H2.27719V7.48H5.36519C6.57052 7.48 7.62119 7.72 8.51719 8.2C9.41319 8.66933 10.1065 9.336 10.5972 10.2C11.0985 11.0533 11.3492 12.056 11.3492 13.208C11.3492 14.36 11.0985 15.3733 10.5972 16.248C10.0959 17.112 9.39719 17.7893 8.50119 18.28C7.61585 18.76 6.57585 19 5.38119 19H2.27719ZM1.49319 19V7.48H2.80519V19H1.49319ZM13.4284 19V10.84H14.7084V19H13.4284ZM13.3324 8.984V7.48H14.8044V8.984H13.3324ZM20.4889 22.44C19.5183 22.44 18.7076 22.2107 18.0569 21.752C17.4169 21.304 17.0276 20.7067 16.8889 19.96H18.1049C18.2223 20.3867 18.4836 20.7227 18.8889 20.968C19.3049 21.224 19.8649 21.352 20.5689 21.352C21.4009 21.352 22.0303 21.1227 22.4569 20.664C22.8836 20.216 23.0969 19.5547 23.0969 18.68V16.936L23.2569 16.968C23.0756 17.5867 22.7129 18.0827 22.1689 18.456C21.6249 18.8187 20.9796 19 20.2329 19C19.5183 19 18.8889 18.8293 18.3449 18.488C17.8009 18.136 17.3796 17.6507 17.0809 17.032C16.7823 16.4133 16.6329 15.6933 16.6329 14.872C16.6329 14.04 16.7876 13.3093 17.0969 12.68C17.4063 12.0507 17.8383 11.5653 18.3929 11.224C18.9583 10.872 19.6143 10.696 20.3609 10.696C21.1289 10.696 21.7689 10.8827 22.2809 11.256C22.8036 11.6293 23.1503 12.1627 23.3209 12.856L23.1769 12.872V10.84H24.3769V18.68C24.3769 19.8427 24.0303 20.76 23.3369 21.432C22.6436 22.104 21.6943 22.44 20.4889 22.44ZM20.5529 17.896C21.3529 17.896 21.9876 17.6187 22.4569 17.064C22.9263 16.5093 23.1609 15.7573 23.1609 14.808C23.1609 13.88 22.9263 13.1493 22.4569 12.616C21.9876 12.072 21.3529 11.8 20.5529 11.8C19.7423 11.8 19.1023 12.072 18.6329 12.616C18.1743 13.16 17.9449 13.9067 17.9449 14.856C17.9449 15.784 18.1796 16.5253 18.6489 17.08C19.1183 17.624 19.7529 17.896 20.5529 17.896ZM30.2881 19.16C29.5094 19.16 28.8214 18.9787 28.2241 18.616C27.6267 18.2427 27.1574 17.736 26.8161 17.096C26.4747 16.456 26.3041 15.72 26.3041 14.888C26.3041 14.056 26.4694 13.3253 26.8001 12.696C27.1414 12.056 27.6161 11.56 28.2241 11.208C28.8321 10.856 29.5307 10.68 30.3201 10.68C31.0774 10.68 31.7334 10.8453 32.2881 11.176C32.8534 11.5067 33.2854 11.9707 33.5841 12.568C33.8934 13.1653 34.0481 13.8693 34.0481 14.68C34.0481 14.7867 34.0427 14.888 34.0321 14.984C34.0321 15.08 34.0214 15.1867 34.0001 15.304H27.2641V14.232H33.2161L32.8001 14.824C32.8001 13.8427 32.5814 13.0907 32.1441 12.568C31.7174 12.0347 31.1094 11.768 30.3201 11.768C29.5094 11.768 28.8534 12.0507 28.3521 12.616C27.8614 13.1707 27.6161 13.9227 27.6161 14.872C27.6161 15.8427 27.8614 16.6213 28.3521 17.208C28.8534 17.784 29.5201 18.072 30.3521 18.072C30.8747 18.072 31.3334 17.96 31.7281 17.736C32.1227 17.5013 32.4107 17.1707 32.5921 16.744H33.8081C33.5414 17.4907 33.0934 18.0827 32.4641 18.52C31.8454 18.9467 31.1201 19.16 30.2881 19.16ZM38.7433 19.16C37.7406 19.16 36.9406 18.9307 36.3433 18.472C35.746 18.0027 35.4046 17.3413 35.3193 16.488H36.5513C36.626 17.0107 36.8553 17.4107 37.2393 17.688C37.6233 17.9653 38.1353 18.104 38.7753 18.104C39.3406 18.104 39.7833 17.9973 40.1033 17.784C40.4233 17.5707 40.5833 17.2667 40.5833 16.872C40.5833 16.5947 40.4926 16.3547 40.3113 16.152C40.13 15.9387 39.7673 15.7627 39.2233 15.624L37.9113 15.288C37.1646 15.096 36.6046 14.8027 36.2313 14.408C35.858 14.0027 35.6713 13.5227 35.6713 12.968C35.6713 12.264 35.9326 11.7093 36.4553 11.304C36.978 10.888 37.6873 10.68 38.5833 10.68C39.4686 10.68 40.1886 10.8933 40.7433 11.32C41.298 11.7467 41.6126 12.3387 41.6873 13.096H40.4553C40.3806 12.6587 40.178 12.3227 39.8473 12.088C39.5166 11.8533 39.0793 11.736 38.5353 11.736C38.0126 11.736 37.6073 11.8373 37.3193 12.04C37.0313 12.232 36.8873 12.5093 36.8873 12.872C36.8873 13.1493 36.9886 13.3893 37.1913 13.592C37.4046 13.7947 37.7566 13.9653 38.2473 14.104L39.5273 14.456C40.2846 14.6587 40.8553 14.968 41.2393 15.384C41.6233 15.8 41.8153 16.3013 41.8153 16.888C41.8153 17.6027 41.5433 18.1627 40.9993 18.568C40.4553 18.9627 39.7033 19.16 38.7433 19.16ZM46.8018 19.144C45.8951 19.144 45.2338 18.9413 44.8178 18.536C44.4125 18.12 44.2098 17.5227 44.2098 16.744V8.936L45.4898 8.456V16.728C45.4898 17.1867 45.6071 17.5227 45.8418 17.736C46.0765 17.9493 46.4605 18.056 46.9938 18.056C47.2071 18.056 47.3885 18.0453 47.5378 18.024C47.6978 17.992 47.8258 17.9547 47.9218 17.912V19C47.8151 19.0427 47.6605 19.0747 47.4578 19.096C47.2658 19.128 47.0471 19.144 46.8018 19.144ZM42.5298 11.928V10.84H47.9218V11.928H42.5298ZM49.5691 19V10.84H50.8491V19H49.5691ZM49.4731 8.984V7.48H50.9451V8.984H49.4731ZM57.4448 19.144C56.6768 19.144 56.0315 18.9573 55.5088 18.584C54.9861 18.2107 54.6288 17.6827 54.4368 17L54.6128 16.968V19H53.4128V7.48H54.6928V12.744L54.5168 12.696C54.7195 12.0667 55.0875 11.576 55.6208 11.224C56.1648 10.8613 56.8101 10.68 57.5568 10.68C58.2821 10.68 58.9115 10.856 59.4448 11.208C59.9888 11.56 60.4101 12.0507 60.7088 12.68C61.0075 13.3093 61.1568 14.0453 61.1568 14.888C61.1568 15.7413 61.0021 16.488 60.6928 17.128C60.3835 17.768 59.9515 18.264 59.3968 18.616C58.8421 18.968 58.1915 19.144 57.4448 19.144ZM57.2528 18.024C58.0635 18.024 58.6981 17.7467 59.1568 17.192C59.6155 16.6267 59.8448 15.8587 59.8448 14.888C59.8448 13.928 59.6155 13.176 59.1568 12.632C58.6981 12.0773 58.0635 11.8 57.2528 11.8C56.4421 11.8 55.8021 12.0827 55.3328 12.648C54.8635 13.2027 54.6288 13.9653 54.6288 14.936C54.6288 15.8853 54.8635 16.6373 55.3328 17.192C55.8021 17.7467 56.4421 18.024 57.2528 18.024ZM63.0847 19V10.84H64.3647V19H63.0847ZM62.9887 8.984V7.48H64.4607V8.984H62.9887ZM66.9284 19V7.48H68.2084V19H66.9284ZM70.7722 19V10.84H72.0522V19H70.7722ZM70.6762 8.984V7.48H72.1482V8.984H70.6762ZM77.8487 19.144C76.942 19.144 76.2807 18.9413 75.8647 18.536C75.4594 18.12 75.2567 17.5227 75.2567 16.744V8.936L76.5367 8.456V16.728C76.5367 17.1867 76.654 17.5227 76.8887 17.736C77.1234 17.9493 77.5074 18.056 78.0407 18.056C78.254 18.056 78.4354 18.0453 78.5847 18.024C78.7447 17.992 78.8727 17.9547 78.9687 17.912V19C78.862 19.0427 78.7074 19.0747 78.5047 19.096C78.3127 19.128 78.094 19.144 77.8487 19.144ZM73.5767 11.928V10.84H78.9687V11.928H73.5767ZM81.4918 22.28L83.3158 18.04L83.6038 17.592L86.2758 10.84H87.5878L82.8518 22.28H81.4918ZM83.4598 19.08L79.7958 10.84H81.2038L84.3558 18.216L83.4598 19.08Z" fill="black"/>
<path d="M139.875 14.5391C139.875 14.8359 139.758 15.0977 139.523 15.3242L131.73 23.0938C131.504 23.3125 131.25 23.4219 130.969 23.4219C130.68 23.4219 130.438 23.3242 130.242 23.1289C130.047 22.9414 129.949 22.7031 129.949 22.4141C129.949 22.2734 129.973 22.1406 130.02 22.0156C130.066 21.8828 130.137 21.7695 130.23 21.6758L132.855 19.0039L137.508 14.7734L137.742 15.3477L133.969 15.582H119.145C118.84 15.582 118.59 15.4844 118.395 15.2891C118.207 15.0938 118.113 14.8438 118.113 14.5391C118.113 14.2344 118.207 13.9844 118.395 13.7891C118.59 13.5938 118.84 13.4961 119.145 13.4961H133.969L137.742 13.7305L137.508 14.3164L132.855 10.0742L130.23 7.40234C130.137 7.30859 130.066 7.19922 130.02 7.07422C129.973 6.94141 129.949 6.80469 129.949 6.66406C129.949 6.375 130.047 6.13672 130.242 5.94922C130.438 5.75391 130.68 5.65625 130.969 5.65625C131.109 5.65625 131.242 5.68359 131.367 5.73828C131.5 5.79297 131.629 5.88281 131.754 6.00781L139.523 13.7539C139.758 13.9805 139.875 14.2422 139.875 14.5391Z" fill="black"/>
<path d="M186.875 94.5391C186.875 94.8359 186.758 95.0977 186.523 95.3242L178.73 103.094C178.504 103.312 178.25 103.422 177.969 103.422C177.68 103.422 177.438 103.324 177.242 103.129C177.047 102.941 176.949 102.703 176.949 102.414C176.949 102.273 176.973 102.141 177.02 102.016C177.066 101.883 177.137 101.77 177.23 101.676L179.855 99.0039L184.508 94.7734L184.742 95.3477L180.969 95.582H166.145C165.84 95.582 165.59 95.4844 165.395 95.2891C165.207 95.0938 165.113 94.8438 165.113 94.5391C165.113 94.2344 165.207 93.9844 165.395 93.7891C165.59 93.5938 165.84 93.4961 166.145 93.4961H180.969L184.742 93.7305L184.508 94.3164L179.855 90.0742L177.23 87.4023C177.137 87.3086 177.066 87.1992 177.02 87.0742C176.973 86.9414 176.949 86.8047 176.949 86.6641C176.949 86.375 177.047 86.1367 177.242 85.9492C177.438 85.7539 177.68 85.6562 177.969 85.6562C178.109 85.6562 178.242 85.6836 178.367 85.7383C178.5 85.793 178.629 85.8828 178.754 86.0078L186.523 93.7539C186.758 93.9805 186.875 94.2422 186.875 94.5391Z" fill="black"/>
<path d="M2.64944 98V86.48H3.96144V98H2.64944ZM3.32144 93.056V91.904H9.52944V93.056H3.32144ZM3.32144 87.632V86.48H9.97744V87.632H3.32144ZM11.8659 98V89.84H13.1459V98H11.8659ZM11.7699 87.984V86.48H13.2419V87.984H11.7699ZM15.7097 98V89.84H16.9097V91.92H16.9897V98H15.7097ZM16.9897 93.744L16.7817 91.808C16.9737 91.1147 17.315 90.5867 17.8057 90.224C18.2964 89.8613 18.8617 89.68 19.5017 89.68C19.7684 89.68 19.9497 89.7013 20.0457 89.744V90.976C19.9924 90.9547 19.9177 90.944 19.8217 90.944C19.7257 90.9333 19.6084 90.928 19.4697 90.928C18.659 90.928 18.0404 91.1733 17.6137 91.664C17.1977 92.144 16.9897 92.8373 16.9897 93.744ZM24.2433 98.16C23.2406 98.16 22.4406 97.9307 21.8433 97.472C21.246 97.0027 20.9046 96.3413 20.8193 95.488H22.0513C22.126 96.0107 22.3553 96.4107 22.7393 96.688C23.1233 96.9653 23.6353 97.104 24.2753 97.104C24.8406 97.104 25.2833 96.9973 25.6033 96.784C25.9233 96.5707 26.0833 96.2667 26.0833 95.872C26.0833 95.5947 25.9926 95.3547 25.8113 95.152C25.63 94.9387 25.2673 94.7627 24.7233 94.624L23.4113 94.288C22.6646 94.096 22.1046 93.8027 21.7313 93.408C21.358 93.0027 21.1713 92.5227 21.1713 91.968C21.1713 91.264 21.4326 90.7093 21.9553 90.304C22.478 89.888 23.1873 89.68 24.0833 89.68C24.9686 89.68 25.6886 89.8933 26.2433 90.32C26.798 90.7467 27.1126 91.3387 27.1873 92.096H25.9553C25.8806 91.6587 25.678 91.3227 25.3473 91.088C25.0166 90.8533 24.5793 90.736 24.0353 90.736C23.5126 90.736 23.1073 90.8373 22.8193 91.04C22.5313 91.232 22.3873 91.5093 22.3873 91.872C22.3873 92.1493 22.4886 92.3893 22.6913 92.592C22.9046 92.7947 23.2566 92.9653 23.7473 93.104L25.0273 93.456C25.7846 93.6587 26.3553 93.968 26.7393 94.384C27.1233 94.8 27.3153 95.3013 27.3153 95.888C27.3153 96.6027 27.0433 97.1627 26.4993 97.568C25.9553 97.9627 25.2033 98.16 24.2433 98.16ZM32.3018 98.144C31.3951 98.144 30.7338 97.9413 30.3178 97.536C29.9125 97.12 29.7098 96.5227 29.7098 95.744V87.936L30.9898 87.456V95.728C30.9898 96.1867 31.1071 96.5227 31.3418 96.736C31.5765 96.9493 31.9605 97.056 32.4938 97.056C32.7071 97.056 32.8885 97.0453 33.0378 97.024C33.1978 96.992 33.3258 96.9547 33.4218 96.912V98C33.3151 98.0427 33.1605 98.0747 32.9578 98.096C32.7658 98.128 32.5471 98.144 32.3018 98.144ZM28.0298 90.928V89.84H33.4218V90.928H28.0298ZM41.0402 98.16C40.0375 98.16 39.2375 97.9307 38.6402 97.472C38.0429 97.0027 37.7015 96.3413 37.6162 95.488H38.8482C38.9229 96.0107 39.1522 96.4107 39.5362 96.688C39.9202 96.9653 40.4322 97.104 41.0722 97.104C41.6375 97.104 42.0802 96.9973 42.4002 96.784C42.7202 96.5707 42.8802 96.2667 42.8802 95.872C42.8802 95.5947 42.7895 95.3547 42.6082 95.152C42.4269 94.9387 42.0642 94.7627 41.5202 94.624L40.2082 94.288C39.4615 94.096 38.9015 93.8027 38.5282 93.408C38.1549 93.0027 37.9682 92.5227 37.9682 91.968C37.9682 91.264 38.2295 90.7093 38.7522 90.304C39.2749 89.888 39.9842 89.68 40.8802 89.68C41.7655 89.68 42.4855 89.8933 43.0402 90.32C43.5949 90.7467 43.9095 91.3387 43.9842 92.096H42.7522C42.6775 91.6587 42.4749 91.3227 42.1442 91.088C41.8135 90.8533 41.3762 90.736 40.8322 90.736C40.3095 90.736 39.9042 90.8373 39.6162 91.04C39.3282 91.232 39.1842 91.5093 39.1842 91.872C39.1842 92.1493 39.2855 92.3893 39.4882 92.592C39.7015 92.7947 40.0535 92.9653 40.5442 93.104L41.8242 93.456C42.5815 93.6587 43.1522 93.968 43.5362 94.384C43.9202 94.8 44.1122 95.3013 44.1122 95.888C44.1122 96.6027 43.8402 97.1627 43.2962 97.568C42.7522 97.9627 42.0002 98.16 41.0402 98.16ZM49.3479 98.16C48.6013 98.16 47.9346 97.9787 47.3479 97.616C46.7719 97.2427 46.3133 96.736 45.9719 96.096C45.6413 95.4453 45.4759 94.7093 45.4759 93.888C45.4759 93.0667 45.6413 92.3413 45.9719 91.712C46.3133 91.0827 46.7719 90.5867 47.3479 90.224C47.9346 89.8613 48.5959 89.68 49.3319 89.68C49.9399 89.68 50.4839 89.7973 50.9639 90.032C51.4546 90.2667 51.8546 90.6027 52.1639 91.04C52.4839 91.4667 52.6866 91.968 52.7719 92.544H51.5879C51.4813 92.0213 51.2359 91.5947 50.8519 91.264C50.4679 90.9333 49.9719 90.768 49.3639 90.768C48.8413 90.768 48.3879 90.896 48.0039 91.152C47.6199 91.408 47.3213 91.7707 47.1079 92.24C46.8946 92.7093 46.7879 93.2587 46.7879 93.888C46.7879 94.5173 46.8946 95.072 47.1079 95.552C47.3213 96.032 47.6199 96.4053 48.0039 96.672C48.3986 96.9387 48.8573 97.072 49.3799 97.072C49.9666 97.072 50.4573 96.912 50.8519 96.592C51.2466 96.2613 51.4973 95.8347 51.6039 95.312H52.7879C52.6919 95.8773 52.4786 96.3787 52.1479 96.816C51.8279 97.2427 51.4279 97.5733 50.9479 97.808C50.4679 98.0427 49.9346 98.16 49.3479 98.16ZM54.6472 98V89.84H55.8472V91.92H55.9272V98H54.6472ZM55.9272 93.744L55.7192 91.808C55.9112 91.1147 56.2525 90.5867 56.7432 90.224C57.2339 89.8613 57.7992 89.68 58.4392 89.68C58.7059 89.68 58.8872 89.7013 58.9832 89.744V90.976C58.9299 90.9547 58.8552 90.944 58.7592 90.944C58.6632 90.9333 58.5459 90.928 58.4072 90.928C57.5965 90.928 56.9779 91.1733 56.5512 91.664C56.1352 92.144 55.9272 92.8373 55.9272 93.744ZM63.7099 98.16C62.9313 98.16 62.2433 97.9787 61.6459 97.616C61.0486 97.2427 60.5793 96.736 60.2379 96.096C59.8966 95.456 59.7259 94.72 59.7259 93.888C59.7259 93.056 59.8913 92.3253 60.2219 91.696C60.5633 91.056 61.0379 90.56 61.6459 90.208C62.2539 89.856 62.9526 89.68 63.7419 89.68C64.4993 89.68 65.1553 89.8453 65.7099 90.176C66.2753 90.5067 66.7073 90.9707 67.0059 91.568C67.3153 92.1653 67.4699 92.8693 67.4699 93.68C67.4699 93.7867 67.4646 93.888 67.4539 93.984C67.4539 94.08 67.4433 94.1867 67.4219 94.304H60.6859V93.232H66.6379L66.2219 93.824C66.2219 92.8427 66.0033 92.0907 65.5659 91.568C65.1393 91.0347 64.5313 90.768 63.7419 90.768C62.9313 90.768 62.2753 91.0507 61.7739 91.616C61.2833 92.1707 61.0379 92.9227 61.0379 93.872C61.0379 94.8427 61.2833 95.6213 61.7739 96.208C62.2753 96.784 62.9419 97.072 63.7739 97.072C64.2966 97.072 64.7553 96.96 65.1499 96.736C65.5446 96.5013 65.8326 96.1707 66.0139 95.744H67.2299C66.9633 96.4907 66.5153 97.0827 65.8859 97.52C65.2673 97.9467 64.5419 98.16 63.7099 98.16ZM72.7412 98.16C71.9625 98.16 71.2745 97.9787 70.6772 97.616C70.0799 97.2427 69.6105 96.736 69.2692 96.096C68.9279 95.456 68.7572 94.72 68.7572 93.888C68.7572 93.056 68.9225 92.3253 69.2532 91.696C69.5945 91.056 70.0692 90.56 70.6772 90.208C71.2852 89.856 71.9839 89.68 72.7732 89.68C73.5305 89.68 74.1865 89.8453 74.7412 90.176C75.3065 90.5067 75.7385 90.9707 76.0372 91.568C76.3465 92.1653 76.5012 92.8693 76.5012 93.68C76.5012 93.7867 76.4959 93.888 76.4852 93.984C76.4852 94.08 76.4745 94.1867 76.4532 94.304H69.7172V93.232H75.6692L75.2532 93.824C75.2532 92.8427 75.0345 92.0907 74.5972 91.568C74.1705 91.0347 73.5625 90.768 72.7732 90.768C71.9625 90.768 71.3065 91.0507 70.8052 91.616C70.3145 92.1707 70.0692 92.9227 70.0692 93.872C70.0692 94.8427 70.3145 95.6213 70.8052 96.208C71.3065 96.784 71.9732 97.072 72.8052 97.072C73.3279 97.072 73.7865 96.96 74.1812 96.736C74.5759 96.5013 74.8639 96.1707 75.0452 95.744H76.2612C75.9945 96.4907 75.5465 97.0827 74.9172 97.52C74.2985 97.9467 73.5732 98.16 72.7412 98.16ZM78.4284 98V89.84H79.6284V91.76H79.7084V98H78.4284ZM84.2684 98V92.656C84.2684 92.0373 84.1138 91.5733 83.8044 91.264C83.4951 90.9547 83.0364 90.8 82.4284 90.8C81.8951 90.8 81.4204 90.9173 81.0044 91.152C80.5991 91.3867 80.2791 91.712 80.0444 92.128C79.8204 92.544 79.7084 93.0293 79.7084 93.584L79.5004 91.648C79.7778 91.04 80.1991 90.56 80.7644 90.208C81.3404 89.856 81.9911 89.68 82.7164 89.68C83.5698 89.68 84.2524 89.9253 84.7644 90.416C85.2871 90.896 85.5484 91.5307 85.5484 92.32V98H84.2684Z" fill="black"/>
<path d="M229.548 98V86.48H230.86V98H229.548ZM230.22 98V96.848H237.26V98H230.22ZM230.22 92.576V91.424H236.684V92.576H230.22ZM230.22 87.632V86.48H237.132V87.632H230.22ZM239.655 98V89.84H240.855V91.76H240.935V98H239.655ZM245.495 98V92.656C245.495 92.0373 245.34 91.5733 245.031 91.264C244.722 90.9547 244.263 90.8 243.655 90.8C243.122 90.8 242.647 90.9173 242.231 91.152C241.826 91.3867 241.506 91.712 241.271 92.128C241.047 92.544 240.935 93.0293 240.935 93.584L240.727 91.648C241.004 91.04 241.426 90.56 241.991 90.208C242.567 89.856 243.218 89.68 243.943 89.68C244.796 89.68 245.479 89.9253 245.991 90.416C246.514 90.896 246.775 91.5307 246.775 92.32V98H245.495ZM255.169 98V96.096L255.329 96.144C255.126 96.7627 254.753 97.2533 254.209 97.616C253.676 97.9787 253.036 98.16 252.289 98.16C251.553 98.16 250.908 97.984 250.353 97.632C249.809 97.28 249.382 96.7893 249.073 96.16C248.774 95.5307 248.625 94.7947 248.625 93.952C248.625 93.0987 248.78 92.352 249.089 91.712C249.398 91.072 249.83 90.576 250.385 90.224C250.94 89.872 251.59 89.696 252.337 89.696C253.105 89.696 253.75 89.8827 254.273 90.256C254.796 90.6293 255.153 91.1573 255.345 91.84L255.089 91.872V86.48H256.369V98H255.169ZM252.529 97.04C253.35 97.04 253.99 96.7627 254.449 96.208C254.918 95.6427 255.153 94.8747 255.153 93.904C255.153 92.9547 254.918 92.2027 254.449 91.648C253.98 91.0933 253.34 90.816 252.529 90.816C251.718 90.816 251.084 91.0933 250.625 91.648C250.166 92.2027 249.937 92.9707 249.937 93.952C249.937 94.912 250.166 95.6693 250.625 96.224C251.084 96.768 251.718 97.04 252.529 97.04ZM263.912 98.16C263.123 98.16 262.392 98.016 261.72 97.728C261.059 97.4293 260.483 97.0187 259.992 96.496C259.502 95.9627 259.123 95.3387 258.856 94.624C258.59 93.8987 258.456 93.104 258.456 92.24C258.456 91.376 258.59 90.5867 258.856 89.872C259.123 89.1467 259.496 88.5227 259.976 88C260.467 87.4667 261.043 87.056 261.704 86.768C262.376 86.4693 263.107 86.32 263.896 86.32C264.76 86.32 265.534 86.496 266.216 86.848C266.91 87.2 267.475 87.696 267.912 88.336C268.36 88.976 268.638 89.7227 268.744 90.576H267.432C267.304 89.6267 266.926 88.88 266.296 88.336C265.678 87.7813 264.883 87.504 263.912 87.504C263.091 87.504 262.371 87.7067 261.752 88.112C261.134 88.5067 260.654 89.0613 260.312 89.776C259.971 90.48 259.8 91.3013 259.8 92.24C259.8 93.1787 259.971 94.0053 260.312 94.72C260.654 95.424 261.134 95.9787 261.752 96.384C262.371 96.7787 263.086 96.976 263.896 96.976C264.888 96.976 265.699 96.6987 266.328 96.144C266.968 95.5893 267.347 94.8427 267.464 93.904H268.776C268.67 94.7573 268.392 95.504 267.944 96.144C267.507 96.784 266.942 97.28 266.248 97.632C265.566 97.984 264.787 98.16 263.912 98.16ZM275.585 98C275.542 97.8187 275.51 97.6107 275.489 97.376C275.478 97.1413 275.473 96.8427 275.473 96.48H275.393V92.576C275.393 91.9573 275.249 91.504 274.961 91.216C274.684 90.9173 274.23 90.768 273.601 90.768C272.982 90.768 272.486 90.896 272.113 91.152C271.75 91.3973 271.548 91.7493 271.505 92.208H270.273C270.326 91.4187 270.657 90.8 271.265 90.352C271.873 89.904 272.668 89.68 273.649 89.68C274.662 89.68 275.414 89.92 275.905 90.4C276.396 90.88 276.641 91.6 276.641 92.56V96.48C276.641 96.7147 276.657 96.96 276.689 97.216C276.721 97.4613 276.764 97.7227 276.817 98H275.585ZM272.785 98.16C271.942 98.16 271.27 97.9573 270.769 97.552C270.278 97.136 270.033 96.5707 270.033 95.856C270.033 95.1413 270.278 94.5867 270.769 94.192C271.26 93.7973 271.974 93.52 272.913 93.36L275.761 92.88V93.936L273.105 94.352C272.508 94.448 272.054 94.608 271.745 94.832C271.436 95.056 271.281 95.3813 271.281 95.808C271.281 96.224 271.42 96.5387 271.697 96.752C271.985 96.9653 272.406 97.072 272.961 97.072C273.676 97.072 274.257 96.912 274.705 96.592C275.164 96.2613 275.393 95.8347 275.393 95.312L275.601 96.448C275.43 96.992 275.094 97.4133 274.593 97.712C274.102 98.0107 273.5 98.16 272.785 98.16ZM279.108 98V89.84H280.308V91.92H280.388V98H279.108ZM280.388 93.744L280.18 91.808C280.372 91.1147 280.713 90.5867 281.204 90.224C281.695 89.8613 282.26 89.68 282.9 89.68C283.167 89.68 283.348 89.7013 283.444 89.744V90.976C283.391 90.9547 283.316 90.944 283.22 90.944C283.124 90.9333 283.007 90.928 282.868 90.928C282.057 90.928 281.439 91.1733 281.012 91.664C280.596 92.144 280.388 92.8373 280.388 93.744ZM290.779 98V96.096L290.939 96.144C290.736 96.7627 290.363 97.2533 289.819 97.616C289.285 97.9787 288.645 98.16 287.899 98.16C287.163 98.16 286.517 97.984 285.963 97.632C285.419 97.28 284.992 96.7893 284.683 96.16C284.384 95.5307 284.235 94.7947 284.235 93.952C284.235 93.0987 284.389 92.352 284.699 91.712C285.008 91.072 285.44 90.576 285.995 90.224C286.549 89.872 287.2 89.696 287.947 89.696C288.715 89.696 289.36 89.8827 289.883 90.256C290.405 90.6293 290.763 91.1573 290.955 91.84L290.699 91.872V86.48H291.979V98H290.779ZM288.139 97.04C288.96 97.04 289.6 96.7627 290.059 96.208C290.528 95.6427 290.763 94.8747 290.763 93.904C290.763 92.9547 290.528 92.2027 290.059 91.648C289.589 91.0933 288.949 90.816 288.139 90.816C287.328 90.816 286.693 91.0933 286.235 91.648C285.776 92.2027 285.547 92.9707 285.547 93.952C285.547 94.912 285.776 95.6693 286.235 96.224C286.693 96.768 287.328 97.04 288.139 97.04ZM297.314 98.16C296.311 98.16 295.511 97.9307 294.914 97.472C294.316 97.0027 293.975 96.3413 293.89 95.488H295.122C295.196 96.0107 295.426 96.4107 295.81 96.688C296.194 96.9653 296.706 97.104 297.346 97.104C297.911 97.104 298.354 96.9973 298.674 96.784C298.994 96.5707 299.154 96.2667 299.154 95.872C299.154 95.5947 299.063 95.3547 298.882 95.152C298.7 94.9387 298.338 94.7627 297.794 94.624L296.482 94.288C295.735 94.096 295.175 93.8027 294.802 93.408C294.428 93.0027 294.242 92.5227 294.242 91.968C294.242 91.264 294.503 90.7093 295.026 90.304C295.548 89.888 296.258 89.68 297.154 89.68C298.039 89.68 298.759 89.8933 299.314 90.32C299.868 90.7467 300.183 91.3387 300.258 92.096H299.026C298.951 91.6587 298.748 91.3227 298.418 91.088C298.087 90.8533 297.65 90.736 297.106 90.736C296.583 90.736 296.178 90.8373 295.89 91.04C295.602 91.232 295.458 91.5093 295.458 91.872C295.458 92.1493 295.559 92.3893 295.762 92.592C295.975 92.7947 296.327 92.9653 296.818 93.104L298.098 93.456C298.855 93.6587 299.426 93.968 299.81 94.384C300.194 94.8 300.386 95.3013 300.386 95.888C300.386 96.6027 300.114 97.1627 299.57 97.568C299.026 97.9627 298.274 98.16 297.314 98.16Z" fill="black"/>
<path d="M229.35 19.16C228.56 19.16 227.83 19.016 227.158 18.728C226.496 18.4293 225.92 18.0187 225.43 17.496C224.939 16.9627 224.56 16.3387 224.294 15.624C224.027 14.8987 223.894 14.104 223.894 13.24C223.894 12.376 224.027 11.5867 224.294 10.872C224.56 10.1467 224.934 9.52267 225.414 9C225.904 8.46667 226.48 8.056 227.142 7.768C227.814 7.46933 228.544 7.32 229.334 7.32C230.198 7.32 230.971 7.496 231.654 7.848C232.347 8.2 232.912 8.696 233.35 9.336C233.798 9.976 234.075 10.7227 234.182 11.576H232.87C232.742 10.6267 232.363 9.88 231.734 9.336C231.115 8.78133 230.32 8.504 229.35 8.504C228.528 8.504 227.808 8.70667 227.19 9.112C226.571 9.50667 226.091 10.0613 225.75 10.776C225.408 11.48 225.238 12.3013 225.238 13.24C225.238 14.1787 225.408 15.0053 225.75 15.72C226.091 16.424 226.571 16.9787 227.19 17.384C227.808 17.7787 228.523 17.976 229.334 17.976C230.326 17.976 231.136 17.6987 231.766 17.144C232.406 16.5893 232.784 15.8427 232.902 14.904H234.214C234.107 15.7573 233.83 16.504 233.382 17.144C232.944 17.784 232.379 18.28 231.686 18.632C231.003 18.984 230.224 19.16 229.35 19.16ZM239.578 19.16C238.778 19.16 238.074 18.9733 237.466 18.6C236.858 18.2267 236.384 17.72 236.042 17.08C235.712 16.4293 235.546 15.6987 235.546 14.888C235.546 14.0667 235.717 13.3413 236.058 12.712C236.4 12.0827 236.869 11.5867 237.466 11.224C238.074 10.8613 238.778 10.68 239.578 10.68C240.389 10.68 241.093 10.8613 241.69 11.224C242.298 11.5867 242.768 12.0827 243.098 12.712C243.44 13.3413 243.61 14.0667 243.61 14.888C243.61 15.6987 243.44 16.4293 243.098 17.08C242.768 17.72 242.298 18.2267 241.69 18.6C241.093 18.9733 240.389 19.16 239.578 19.16ZM239.578 18.072C240.133 18.072 240.613 17.9387 241.018 17.672C241.424 17.3947 241.738 17.016 241.962 16.536C242.186 16.056 242.298 15.5013 242.298 14.872C242.298 13.9333 242.048 13.1813 241.546 12.616C241.056 12.0507 240.4 11.768 239.578 11.768C238.768 11.768 238.112 12.0507 237.61 12.616C237.109 13.1813 236.858 13.9333 236.858 14.872C236.858 15.5013 236.97 16.056 237.194 16.536C237.418 17.016 237.733 17.3947 238.138 17.672C238.554 17.9387 239.034 18.072 239.578 18.072ZM245.53 19V10.84H246.73V12.76H246.81V19H245.53ZM251.37 19V13.656C251.37 13.0373 251.215 12.5733 250.906 12.264C250.597 11.9547 250.138 11.8 249.53 11.8C248.997 11.8 248.522 11.9173 248.106 12.152C247.701 12.3867 247.381 12.712 247.146 13.128C246.922 13.544 246.81 14.0293 246.81 14.584L246.602 12.648C246.879 12.04 247.301 11.56 247.866 11.208C248.442 10.856 249.093 10.68 249.818 10.68C250.671 10.68 251.354 10.9253 251.866 11.416C252.389 11.896 252.65 12.5307 252.65 13.32V19H251.37ZM257.18 19L253.804 10.84H255.18L257.996 18.136H257.484L260.284 10.84H261.596L258.22 19H257.18ZM266.312 19.16C265.533 19.16 264.845 18.9787 264.248 18.616C263.65 18.2427 263.181 17.736 262.84 17.096C262.498 16.456 262.328 15.72 262.328 14.888C262.328 14.056 262.493 13.3253 262.824 12.696C263.165 12.056 263.64 11.56 264.248 11.208C264.856 10.856 265.554 10.68 266.344 10.68C267.101 10.68 267.757 10.8453 268.312 11.176C268.877 11.5067 269.309 11.9707 269.608 12.568C269.917 13.1653 270.072 13.8693 270.072 14.68C270.072 14.7867 270.066 14.888 270.056 14.984C270.056 15.08 270.045 15.1867 270.024 15.304H263.288V14.232H269.24L268.824 14.824C268.824 13.8427 268.605 13.0907 268.168 12.568C267.741 12.0347 267.133 11.768 266.344 11.768C265.533 11.768 264.877 12.0507 264.376 12.616C263.885 13.1707 263.64 13.9227 263.64 14.872C263.64 15.8427 263.885 16.6213 264.376 17.208C264.877 17.784 265.544 18.072 266.376 18.072C266.898 18.072 267.357 17.96 267.752 17.736C268.146 17.5013 268.434 17.1707 268.616 16.744H269.832C269.565 17.4907 269.117 18.0827 268.488 18.52C267.869 18.9467 267.144 19.16 266.312 19.16ZM271.999 19V10.84H273.199V12.92H273.279V19H271.999ZM273.279 14.744L273.071 12.808C273.263 12.1147 273.604 11.5867 274.095 11.224C274.585 10.8613 275.151 10.68 275.791 10.68C276.057 10.68 276.239 10.7013 276.335 10.744V11.976C276.281 11.9547 276.207 11.944 276.111 11.944C276.015 11.9333 275.897 11.928 275.759 11.928C274.948 11.928 274.329 12.1733 273.903 12.664C273.487 13.144 273.279 13.8373 273.279 14.744ZM280.532 19.16C279.53 19.16 278.73 18.9307 278.132 18.472C277.535 18.0027 277.194 17.3413 277.108 16.488H278.34C278.415 17.0107 278.644 17.4107 279.028 17.688C279.412 17.9653 279.924 18.104 280.564 18.104C281.13 18.104 281.572 17.9973 281.892 17.784C282.212 17.5707 282.372 17.2667 282.372 16.872C282.372 16.5947 282.282 16.3547 282.1 16.152C281.919 15.9387 281.556 15.7627 281.012 15.624L279.7 15.288C278.954 15.096 278.394 14.8027 278.02 14.408C277.647 14.0027 277.46 13.5227 277.46 12.968C277.46 12.264 277.722 11.7093 278.244 11.304C278.767 10.888 279.476 10.68 280.372 10.68C281.258 10.68 281.978 10.8933 282.532 11.32C283.087 11.7467 283.402 12.3387 283.476 13.096H282.244C282.17 12.6587 281.967 12.3227 281.636 12.088C281.306 11.8533 280.868 11.736 280.324 11.736C279.802 11.736 279.396 11.8373 279.108 12.04C278.82 12.232 278.676 12.5093 278.676 12.872C278.676 13.1493 278.778 13.3893 278.98 13.592C279.194 13.7947 279.546 13.9653 280.036 14.104L281.316 14.456C282.074 14.6587 282.644 14.968 283.028 15.384C283.412 15.8 283.604 16.3013 283.604 16.888C283.604 17.6027 283.332 18.1627 282.788 18.568C282.244 18.9627 281.492 19.16 280.532 19.16ZM285.452 19V10.84H286.732V19H285.452ZM285.356 8.984V7.48H286.828V8.984H285.356ZM292.656 19.16C291.856 19.16 291.152 18.9733 290.544 18.6C289.936 18.2267 289.462 17.72 289.12 17.08C288.79 16.4293 288.624 15.6987 288.624 14.888C288.624 14.0667 288.795 13.3413 289.136 12.712C289.478 12.0827 289.947 11.5867 290.544 11.224C291.152 10.8613 291.856 10.68 292.656 10.68C293.467 10.68 294.171 10.8613 294.768 11.224C295.376 11.5867 295.846 12.0827 296.176 12.712C296.518 13.3413 296.688 14.0667 296.688 14.888C296.688 15.6987 296.518 16.4293 296.176 17.08C295.846 17.72 295.376 18.2267 294.768 18.6C294.171 18.9733 293.467 19.16 292.656 19.16ZM292.656 18.072C293.211 18.072 293.691 17.9387 294.096 17.672C294.502 17.3947 294.816 17.016 295.04 16.536C295.264 16.056 295.376 15.5013 295.376 14.872C295.376 13.9333 295.126 13.1813 294.624 12.616C294.134 12.0507 293.478 11.768 292.656 11.768C291.846 11.768 291.19 12.0507 290.688 12.616C290.187 13.1813 289.936 13.9333 289.936 14.872C289.936 15.5013 290.048 16.056 290.272 16.536C290.496 17.016 290.811 17.3947 291.216 17.672C291.632 17.9387 292.112 18.072 292.656 18.072ZM298.608 19V10.84H299.808V12.76H299.888V19H298.608ZM304.448 19V13.656C304.448 13.0373 304.293 12.5733 303.984 12.264C303.675 11.9547 303.216 11.8 302.608 11.8C302.075 11.8 301.6 11.9173 301.184 12.152C300.779 12.3867 300.459 12.712 300.224 13.128C300 13.544 299.888 14.0293 299.888 14.584L299.68 12.648C299.957 12.04 300.379 11.56 300.944 11.208C301.52 10.856 302.171 10.68 302.896 10.68C303.749 10.68 304.432 10.9253 304.944 11.416C305.467 11.896 305.728 12.5307 305.728 13.32V19H304.448Z" fill="black"/>
<line x1="96" y1="14.75" x2="215" y2="14.75" stroke="#8E8E93" stroke-width="0.5" stroke-dasharray="3 3"/>
<line x1="96" y1="94.75" x2="215" y2="94.75" stroke="#8E8E93" stroke-width="0.5" stroke-dasharray="3 3"/>
</svg>
