<svg width="16" height="12" viewBox="0 0 16 12" fill="none" xmlns="http://www.w3.org/2000/svg">
<path d="M7.99365 6.62793C7.7863 6.62793 7.58317 6.54118 7.38428 6.36768L1.04297 0.781738C1.38151 0.561686 1.81104 0.45166 2.33154 0.45166H13.6621C14.1826 0.45166 14.61 0.561686 14.9443 0.781738L8.60303 6.36768C8.40837 6.54118 8.20524 6.62793 7.99365 6.62793ZM0.503418 10.3667C0.452637 10.2482 0.412435 10.1128 0.382812 9.96045C0.35319 9.80811 0.338379 9.63037 0.338379 9.42725V2.41943C0.338379 2.19938 0.35319 2.01107 0.382812 1.85449C0.416667 1.69792 0.452637 1.58789 0.490723 1.52441L5.20068 5.67578L0.503418 10.3667ZM2.14111 11.395C1.90837 11.395 1.70101 11.3696 1.51904 11.3188C1.34131 11.2681 1.1932 11.2004 1.07471 11.1157L5.90527 6.28516L6.83203 7.11035C7.01823 7.27116 7.20866 7.39388 7.40332 7.47852C7.59798 7.55892 7.79476 7.59912 7.99365 7.59912C8.19255 7.59912 8.38932 7.55892 8.58398 7.47852C8.78288 7.39388 8.97542 7.27116 9.16162 7.11035L10.0884 6.28516L14.9189 11.1157C14.8005 11.2004 14.6502 11.2681 14.4683 11.3188C14.2905 11.3696 14.0853 11.395 13.8525 11.395H2.14111ZM15.4902 10.3667L10.793 5.67578L15.5029 1.52441C15.5368 1.58789 15.5706 1.69792 15.6045 1.85449C15.6383 2.01107 15.6553 2.19938 15.6553 2.41943V9.42725C15.6553 9.63037 15.6383 9.80811 15.6045 9.96045C15.5749 10.1128 15.5368 10.2482 15.4902 10.3667Z" fill="white" style="fill:white;fill-opacity:1;"/>
</svg>
